<?xml version="1.0" standalone="no"?>
<!DOCTYPE svg PUBLIC "-//W3C//DTD SVG 20010904//EN"
 "http://www.w3.org/TR/2001/REC-SVG-20010904/DTD/svg10.dtd">
<svg version="1.0" xmlns="http://www.w3.org/2000/svg"
 width="392.000000pt" height="86.000000pt" viewBox="0 0 392.000000 86.000000"
 preserveAspectRatio="xMidYMid meet">

<g transform="translate(0.000000,86.000000) scale(0.100000,-0.100000)"
fill="#000000" stroke="none">
<path d="M259 659 c-3 -8 -3 -116 -1 -241 l4 -228 118 0 c152 0 207 12 258 56
54 46 76 111 70 209 -6 96 -36 150 -101 184 -43 21 -64 25 -196 29 -120 4
-149 2 -152 -9z m278 -125 c29 -18 43 -53 43 -104 0 -85 -34 -119 -130 -127
l-60 -6 0 133 0 133 62 -7 c34 -3 72 -13 85 -22z"/>
<path d="M1200 565 c-14 -26 -33 -51 -42 -56 -26 -14 -25 -89 1 -89 16 0 19
-10 23 -91 4 -85 6 -94 32 -115 22 -19 39 -24 84 -24 91 0 102 6 102 51 l0 39
-45 0 -45 0 0 70 0 70 45 0 45 0 0 45 0 45 -44 0 -45 0 -3 48 -3 47 -40 3
c-38 3 -41 1 -65 -43z"/>
<path d="M860 509 c-36 -3 -71 -9 -78 -13 -7 -4 -12 -28 -12 -53 l0 -46 38 7
c121 23 152 17 152 -26 0 -16 -3 -17 -21 -7 -13 6 -45 9 -76 7 -59 -5 -97 -31
-108 -75 -8 -33 12 -91 35 -103 28 -15 117 -12 150 5 27 14 30 14 30 0 0 -13
11 -15 63 -13 l62 3 -4 115 c-2 63 -7 125 -12 137 -19 51 -97 73 -219 62z m91
-200 c27 -14 14 -29 -27 -29 -22 0 -34 5 -34 13 0 28 26 35 61 16z"/>
<path d="M1565 513 c-105 -8 -105 -8 -105 -67 l0 -53 52 13 c68 18 103 18 122
-2 26 -26 21 -45 -10 -34 -61 24 -151 3 -174 -39 -5 -11 -10 -37 -10 -59 0
-57 31 -82 101 -82 30 1 65 7 79 15 32 18 40 18 40 0 0 -12 13 -15 55 -15 65
0 79 15 65 76 -5 21 -10 69 -10 106 0 57 -4 71 -26 97 -24 28 -41 35 -119 45
-11 1 -38 1 -60 -1z m66 -203 c31 -17 22 -30 -21 -30 -27 0 -40 4 -40 13 0 28
26 35 61 17z"/>
</g>
</svg>
